<svg width="2641" height="1055" viewBox="0 0 2641 1055" fill="none" xmlns="http://www.w3.org/2000/svg">
<circle cx="642.5" cy="305.5" r="80.5" fill="white"/>
<circle cx="226.5" cy="741.5" r="80.5" fill="white"/>
<circle cx="439.5" cy="518.5" r="80.5" fill="white"/>
<circle cx="642.5" cy="660.5" r="52.5" fill="white"/>
<circle cx="243.5" cy="342.5" r="52.5" fill="white"/>
<circle cx="468" cy="777" r="64" fill="white"/>
<line x1="281.791" y1="371.015" x2="384.791" y2="469.015" stroke="white" stroke-width="11"/>
<line x1="494.264" y1="554.573" x2="612.264" y2="641.573" stroke="white" stroke-width="11"/>
<line x1="445.466" y1="572.386" x2="464.466" y2="741.385" stroke="white" stroke-width="11"/>
<line x1="594.128" y1="356.635" x2="495.128" y2="469.074" stroke="white" stroke-width="11"/>
<line x1="385.057" y1="566.714" x2="266.057" y2="696.714" stroke="white" stroke-width="11"/>
<path d="M950.25 424C975.45 424 996.917 429.133 1014.65 439.4C1032.38 449.667 1045.8 463.783 1054.9 481.75C1064 499.717 1068.55 520.017 1068.55 542.65C1068.55 565.75 1064 586.4 1054.9 604.6C1045.8 622.567 1032.38 636.683 1014.65 646.95C996.917 656.983 975.45 662 950.25 662H863.1V424H950.25ZM950.25 632.6C974.983 632.6 994.117 624.55 1007.65 608.45C1021.42 592.35 1028.3 570.533 1028.3 543C1028.3 515.933 1021.42 494.233 1007.65 477.9C994.117 461.567 974.983 453.4 950.25 453.4H903V632.6H950.25ZM1196.33 667.6C1176.03 667.6 1158.88 663.167 1144.88 654.3C1130.88 645.433 1120.38 633.417 1113.38 618.25C1106.38 603.083 1102.88 586.167 1102.88 567.5C1102.88 548.133 1106.38 530.867 1113.38 515.7C1120.38 500.533 1130.88 488.517 1144.88 479.65C1158.88 470.783 1176.03 466.35 1196.33 466.35C1216.63 466.35 1233.78 471.017 1247.78 480.35C1261.78 489.45 1272.28 501.583 1279.28 516.75C1286.28 531.917 1289.78 548.6 1289.78 566.8C1289.78 585 1286.28 601.8 1279.28 617.2C1272.28 632.367 1261.78 644.617 1247.78 653.95C1233.78 663.05 1216.63 667.6 1196.33 667.6ZM1196.68 638.9C1214.42 638.9 1227.83 632.6 1236.93 620C1246.27 607.167 1250.93 589.55 1250.93 567.15C1250.93 544.983 1246.27 527.483 1236.93 514.65C1227.83 501.817 1214.42 495.4 1196.68 495.4C1178.72 495.4 1165.18 501.817 1156.08 514.65C1146.98 527.483 1142.43 544.983 1142.43 567.15C1142.43 589.55 1146.98 607.167 1156.08 620C1165.18 632.6 1178.72 638.9 1196.68 638.9ZM1415.08 667.6C1394.55 667.6 1377.28 663.167 1363.28 654.3C1349.28 645.433 1338.78 633.417 1331.78 618.25C1325.02 603.083 1321.63 586.167 1321.63 567.5C1321.63 549.067 1325.13 532.267 1332.13 517.1C1339.13 501.7 1349.98 489.45 1364.68 480.35C1379.38 471.017 1397.7 466.35 1419.63 466.35C1430.37 466.35 1440.98 468.1 1451.48 471.6C1461.98 475.1 1470.62 479.767 1477.38 485.6L1465.83 512.9C1459.77 507.533 1452.65 503.333 1444.48 500.3C1436.32 497.033 1428.03 495.4 1419.63 495.4C1400.97 495.4 1386.5 501.933 1376.23 515C1365.97 527.833 1360.83 545.217 1360.83 567.15C1360.83 589.083 1365.62 606.583 1375.18 619.65C1384.75 632.483 1398.05 638.9 1415.08 638.9C1426.05 638.9 1435.85 636.8 1444.48 632.6C1453.12 628.167 1461.63 622.1 1470.03 614.4L1482.98 638.9C1474.82 647.3 1464.9 654.183 1453.23 659.55C1441.57 664.917 1428.85 667.6 1415.08 667.6ZM1679.43 471.95V662H1650.03L1645.13 643.8C1622.5 659.667 1600.56 667.6 1579.33 667.6C1557.4 667.6 1542.23 661.883 1533.83 650.45C1525.66 639.017 1521.58 622.333 1521.58 600.4V471.95H1560.08V596.55C1560.08 611.483 1562.3 622.217 1566.73 628.75C1571.16 635.05 1579.1 638.2 1590.53 638.2C1605.93 638.2 1622.73 631.2 1640.93 617.2V471.95H1679.43ZM1869.45 536.35C1886.72 539.85 1899.79 546.967 1908.65 557.7C1917.52 568.2 1921.95 581.15 1921.95 596.55C1921.95 616.85 1914.25 632.833 1898.85 644.5C1883.45 656.167 1861.17 662 1832 662H1748.35V424H1832C1857.9 424 1877.62 429.133 1891.15 439.4C1904.69 449.667 1911.45 464.483 1911.45 483.85C1911.45 496.45 1907.84 507.417 1900.6 516.75C1893.6 526.083 1883.22 532.617 1869.45 536.35ZM1788.25 453.05V522H1832C1844.6 522 1854.29 519.083 1861.05 513.25C1868.05 507.183 1871.55 498.667 1871.55 487.7C1871.55 464.6 1858.37 453.05 1832 453.05H1788.25ZM1832 632.95C1847.87 632.95 1860.12 629.45 1868.75 622.45C1877.62 615.217 1882.05 605.067 1882.05 592C1882.05 578.233 1877.74 567.967 1869.1 561.2C1860.7 554.433 1848.34 551.05 1832 551.05H1788.25V632.95H1832ZM2047.41 667.6C2027.11 667.6 2009.96 663.167 1995.96 654.3C1981.96 645.433 1971.46 633.417 1964.46 618.25C1957.46 603.083 1953.96 586.167 1953.96 567.5C1953.96 548.133 1957.46 530.867 1964.46 515.7C1971.46 500.533 1981.96 488.517 1995.96 479.65C2009.96 470.783 2027.11 466.35 2047.41 466.35C2067.71 466.35 2084.86 471.017 2098.86 480.35C2112.86 489.45 2123.36 501.583 2130.36 516.75C2137.36 531.917 2140.86 548.6 2140.86 566.8C2140.86 585 2137.36 601.8 2130.36 617.2C2123.36 632.367 2112.86 644.617 2098.86 653.95C2084.86 663.05 2067.71 667.6 2047.41 667.6ZM2047.76 638.9C2065.49 638.9 2078.91 632.6 2088.01 620C2097.34 607.167 2102.01 589.55 2102.01 567.15C2102.01 544.983 2097.34 527.483 2088.01 514.65C2078.91 501.817 2065.49 495.4 2047.76 495.4C2029.79 495.4 2016.26 501.817 2007.16 514.65C1998.06 527.483 1993.51 544.983 1993.51 567.15C1993.51 589.55 1998.06 607.167 2007.16 620C2016.26 632.6 2029.79 638.9 2047.76 638.9ZM2301.16 653.6C2288.09 661.767 2273.74 665.85 2258.11 665.85C2237.11 665.85 2221.47 660.483 2211.21 649.75C2200.94 638.783 2195.81 623.15 2195.81 602.85V500.65H2166.06V484.2L2199.66 473.35L2211.21 426.1H2234.31V471.95H2290.31V500.65H2234.31V595.5C2234.31 610.2 2236.64 620.817 2241.31 627.35C2245.97 633.65 2253.56 636.8 2264.06 636.8C2269.42 636.567 2274.44 635.75 2279.11 634.35C2283.77 632.95 2288.91 630.733 2294.51 627.7L2301.16 653.6Z" fill="white"/>
</svg>
